<?xml version="1.0" encoding="UTF-8" standalone="no"?>
<!-- Created with Inkscape (http://www.inkscape.org/) -->

<svg
   width="200mm"
   height="80mm"
   viewBox="0 0 200 80"
   version="1.1"
   id="svg5"
   xml:space="preserve"
   inkscape:version="1.2.1 (9c6d41e410, 2022-07-14)"
   sodipodi:docname="outputtype.svg"
   xmlns:inkscape="http://www.inkscape.org/namespaces/inkscape"
   xmlns:sodipodi="http://sodipodi.sourceforge.net/DTD/sodipodi-0.dtd"
   xmlns="http://www.w3.org/2000/svg"
   xmlns:svg="http://www.w3.org/2000/svg"><sodipodi:namedview
     id="namedview7"
     pagecolor="#ffffff"
     bordercolor="#000000"
     borderopacity="0.25"
     inkscape:showpageshadow="2"
     inkscape:pageopacity="0.0"
     inkscape:pagecheckerboard="0"
     inkscape:deskcolor="#d1d1d1"
     inkscape:document-units="mm"
     showgrid="false"
     inkscape:zoom="0.84096521"
     inkscape:cx="512.50634"
     inkscape:cy="107.01989"
     inkscape:window-width="2560"
     inkscape:window-height="1506"
     inkscape:window-x="-11"
     inkscape:window-y="-11"
     inkscape:window-maximized="1"
     inkscape:current-layer="layer1" /><defs
     id="defs2" /><g
     inkscape:label="Layer 1"
     inkscape:groupmode="layer"
     id="layer1"><g
       id="g363"
       transform="translate(-12.046302,-16.592516)"><g
         id="g153"
         transform="matrix(0.89285714,0,0,0.9375,21.613908,26.592516)"><g
           id="g138">
	<path
   fill="#8c181a"
   d="M 5.1,0 C 2.3,0 0,2.3 0,5.1 V 58.9 C 0,61.7 2.3,64 5.1,64 H 50.9 C 53.7,64 56,61.7 56,58.9 V 20.3 L 37.1,0 Z"
   id="path132" />
	<path
   fill="#6b0d12"
   d="m 56,20.4 v 1 H 43.2 c 0,0 -6.3,-1.3 -6.1,-6.7 0,0 0.2,5.7 6,5.7 z"
   id="path134" />
	<path
   opacity="0.5"
   fill="#ffffff"
   enable-background="new    "
   d="m 37.1,0 v 14.6 c 0,1.7 1.1,5.8 6.1,5.8 H 56 Z"
   id="path136" />
</g><path
           fill="#ffffff"
           d="m 14.9,49 h -3.3 v 4.1 c 0,0.4 -0.3,0.7 -0.8,0.7 -0.4,0 -0.7,-0.3 -0.7,-0.7 V 42.9 c 0,-0.6 0.5,-1.1 1.1,-1.1 h 3.7 c 2.4,0 3.8,1.7 3.8,3.6 0,2 -1.4,3.6 -3.8,3.6 z m -0.1,-5.9 h -3.2 v 4.6 h 3.2 c 1.4,0 2.4,-0.9 2.4,-2.3 0,-1.4 -1,-2.3 -2.4,-2.3 z m 10.4,10.7 h -3 c -0.6,0 -1.1,-0.5 -1.1,-1.1 v -9.8 c 0,-0.6 0.5,-1.1 1.1,-1.1 h 3 c 3.7,0 6.2,2.6 6.2,6 0,3.4 -2.4,6 -6.2,6 z m 0,-10.7 h -2.6 v 9.3 h 2.6 c 2.9,0 4.6,-2.1 4.6,-4.7 0.1,-2.5 -1.6,-4.6 -4.6,-4.6 z m 16.3,0 H 35.7 V 47 h 5.7 c 0.4,0 0.6,0.3 0.6,0.7 0,0.4 -0.3,0.6 -0.6,0.6 h -5.7 v 4.8 c 0,0.4 -0.3,0.7 -0.8,0.7 -0.4,0 -0.7,-0.3 -0.7,-0.7 V 42.9 c 0,-0.6 0.5,-1.1 1.1,-1.1 h 6.2 c 0.4,0 0.6,0.3 0.6,0.7 0.1,0.3 -0.2,0.6 -0.6,0.6 z"
           id="path140" /></g><g
         id="g328"
         transform="matrix(0.67621775,0,0,0.63669903,79.587851,25.075914)"><path
           style="fill:#ffffff;stroke:none"
           d="M 65,3 V 22 H 84 Z"
           id="path313" /><path
           style="fill:#ebebda;stroke:#777777;stroke-width:2"
           d="M 65,3 V 22 H 84 V 96 H 12 V 3 h 53 l 19,19"
           id="path315" /><path
           style="fill:#ebebda;stroke:#777777;stroke-width:8"
           d="M 25,70 V 30 L 35,55 45,30 v 40 m 10,0 V 33 q 15,0 15,15 0,20 -15,18 z"
           id="path317" /></g><g
         style="fill:#000000"
         id="g345"
         transform="matrix(0.15151515,0,0,0.16666667,150.20597,26.592515)"><g
           id="XMLID_943_">
	<path
   id="XMLID_944_"
   d="M 345,124.551 H 295 V 77.834 L 211.977,0 H 15 v 360 h 280 v -52.721 h 50 z M 315,277.279 H 105 V 154.551 h 210 z" />
	<polygon
   id="XMLID_947_"
   points="127.156,180.185 127.156,191.075 147.586,191.075 147.586,244.085 159.916,244.085 159.916,191.075 180.347,191.075 180.347,180.185 " />
	<polygon
   id="XMLID_948_"
   points="200.686,233.195 200.686,216.545 227.596,216.545 227.596,206.465 200.686,206.465 200.686,191.075 231.825,191.075 231.825,180.185 188.266,180.185 188.266,244.085 232.635,244.085 232.635,233.195 " />
	<polygon
   id="XMLID_949_"
   points="249.645,244.085 264.855,221.225 279.975,244.085 293.385,244.085 271.335,212.585 294.105,180.185 280.695,180.185 264.855,203.945 248.925,180.185 235.425,180.185 258.195,212.585 236.145,244.085 " />
</g></g></g></g></svg>
