<?xml version="1.0" encoding="UTF-8" standalone="no"?>
<svg
   viewBox="0 0 400 119.99999"
   version="1.1"
   id="svg16"
   sodipodi:docname="logoImg.svg"
   width="400"
   height="120"
   inkscape:version="1.2.1 (9c6d41e410, 2022-07-14)"
   xmlns:inkscape="http://www.inkscape.org/namespaces/inkscape"
   xmlns:sodipodi="http://sodipodi.sourceforge.net/DTD/sodipodi-0.dtd"
   xmlns="http://www.w3.org/2000/svg"
   xmlns:svg="http://www.w3.org/2000/svg">
  <defs
     id="defs20" />
  <sodipodi:namedview
     id="namedview18"
     pagecolor="#ffffff"
     bordercolor="#000000"
     borderopacity="0.25"
     inkscape:showpageshadow="2"
     inkscape:pageopacity="0.0"
     inkscape:pagecheckerboard="0"
     inkscape:deskcolor="#d1d1d1"
     showgrid="false"
     inkscape:zoom="1.5304398"
     inkscape:cx="235.87992"
     inkscape:cy="-98.011045"
     inkscape:window-width="2560"
     inkscape:window-height="1506"
     inkscape:window-x="-11"
     inkscape:window-y="-11"
     inkscape:window-maximized="1"
     inkscape:current-layer="svg16" />
  <g
     id="图层_2"
     data-name="图层 2"
     transform="matrix(2.6497085,0,0,2.6497085,31.134077,10.000001)">
    <g
       id="图层_1-2"
       data-name="图层 1">
      <path
         d="m 26.55,28.61 c -1.22,0 -3.49,0 -4.62,0.08 V 27.6 c 2.9,0 3.36,0 3.36,-1.89 v -24.66 0 l -10,27 c -0.17,0.42 -0.25,0.67 -0.59,0.67 -0.34,0 -0.42,-0.25 -0.59,-0.67 L 4.24,1.26 v 0 23.31 c 0,1.05 0,3 3.36,3 v 1.09 C 6.6,28.58 4.87,28.58 3.82,28.58 2.77,28.58 1,28.61 0,28.69 V 27.6 c 3.36,0 3.36,-2 3.36,-3 V 3 C 3.36,1.09 2.9,1.09 0,1.09 V 0 H 5.38 C 6.26,0 6.3,0 6.55,0.67 L 15.63,25.29 24.7,0.67 C 25,0 25,0 25.88,0 h 5.33 v 1.09 c -2.9,0 -3.36,0 -3.36,1.89 v 22.73 c 0,1.89 0.46,1.89 3.36,1.89 v 1.09 c -1.13,-0.08 -3.44,-0.08 -4.66,-0.08 z"
         id="path2" />
      <path
         d="m 40.71,18.46 c -0.81,0 -2.16,0 -2.91,0.05 v -0.67 c 0.49,0 1.61,0 1.61,-0.7 a 1,1 0 0 0 -0.13,-0.47 l -1.56,-4.42 h -6.81 l -1.38,3.87 a 1.49,1.49 0 0 0 -0.11,0.52 c 0,0.31 0.19,1.15 1.41,1.2 v 0.67 c -0.63,-0.05 -1.67,-0.05 -2.32,-0.05 -0.49,0 -1.53,0 -2,0.05 V 17.84 A 2.37,2.37 0 0 0 29,16.15 l 5.47,-15.6 c 0.13,-0.34 0.18,-0.42 0.44,-0.42 0.26,0 0.31,0.08 0.44,0.42 l 5.77,16.33 c 0.34,1 0.81,1 2.19,1 v 0.67 c -0.63,-0.09 -1.93,-0.09 -2.6,-0.09 z m -6.4,-15.83 -3.17,8.94 h 6.34 z"
         id="path4" />
      <path
         d="m 63.72,9.41 c -0.55,-7 -1.18,-8.19 -7.6,-8.19 -0.76,0 -2,0 -2.31,0 -0.76,0.17 -0.76,0.67 -0.76,1.6 v 22.8 c 0,1.52 0.13,2 3.61,2 h 1.18 v 1.09 l -6.18,-0.08 -6.17,0.08 V 27.6 h 1.17 c 3.49,0 3.62,-0.46 3.62,-2 V 2.86 c 0,-1 0,-1.47 -0.8,-1.6 -0.34,0 -1.56,0 -2.31,0 -6.47,0 -7.06,1.22 -7.61,8.19 h -0.75 l 0.71,-9.32 h 24.24 l 0.72,9.28 z"
         id="path6" />
      <path
         d="M 82.67,37.74 H 60.83 v -1.09 c 2.9,0 3.36,0 3.36,-1.89 V 12.12 c 0,-1.89 -0.46,-1.89 -3.36,-1.89 V 9.14 h 21.25 l 1,9.28 h -0.75 c -0.59,-5.59 -1.35,-8.19 -7.86,-8.19 h -5.74 c -1.68,0 -1.77,0.21 -1.77,1.64 v 10.46 h 4 c 4,0 4.33,-1.43 4.33,-4.92 H 76 v 10.92 h -0.75 c 0,-3.48 -0.38,-4.91 -4.33,-4.91 H 67 V 35 c 0,1.43 0.09,1.64 1.77,1.64 h 5.84 c 7.39,0 7.93,-3.36 8.86,-9.54 h 0.76 z"
         id="path8" />
      <path
         d="m 104.13,28.61 c -1.38,0 -3.44,0 -4.78,0.08 V 27.6 c 1.47,-0.09 1.84,-0.8 1.84,-1.14 0,-0.12 0,-0.25 -0.33,-0.71 l -7.31,-10.67 -6.72,9.75 a 1.72,1.72 0 0 0 -0.42,1.17 1.63,1.63 0 0 0 1.68,1.64 v 1.09 c -1,-0.08 -3,-0.08 -4.16,-0.08 -1.16,0 -2.61,0 -3.57,0.08 V 27.6 A 6.23,6.23 0 0 0 85.69,25 L 93,14.32 84.9,2.48 C 83.97,1.18 83.22,1.09 80.9,1.09 V 0 c 1,0.08 3.11,0.08 4.21,0.08 1.38,0 3.44,0 4.78,-0.08 v 1.09 c -1.38,0 -1.84,0.76 -1.84,1.14 0,0.12 0,0.25 0.33,0.71 L 94.6,12 100.14,4 A 2.06,2.06 0 0 0 100.65,2.74 1.6,1.6 0 0 0 99,1.09 V 0 c 1,0.08 2.77,0.08 4.16,0.08 1,0 2.6,0 3.57,-0.08 v 1.09 a 5.92,5.92 0 0 0 -5.34,2.73 l -6.21,9 9.24,13.44 c 0.84,1.18 1.26,1.39 4,1.39 v 1.09 c -1.09,-0.13 -3.19,-0.13 -4.29,-0.13 z"
         id="path10" />
      <path
         d="m 125.9,37.74 h -21.84 v -1.09 c 2.9,0 3.36,0 3.36,-1.89 V 12.12 c 0,-1.89 -0.46,-1.89 -3.36,-1.89 V 9.14 h 21.26 l 1,9.28 h -0.75 c -0.59,-5.59 -1.35,-8.19 -7.86,-8.19 H 112 c -1.68,0 -1.77,0.21 -1.77,1.64 v 10.46 h 4 c 4,0 4.33,-1.43 4.33,-4.92 h 0.75 v 10.92 h -0.75 c 0,-3.48 -0.38,-4.91 -4.33,-4.91 h -4 V 35 c 0,1.43 0.09,1.64 1.77,1.64 h 5.84 c 7.39,0 7.94,-3.36 8.86,-9.54 h 0.76 z"
         id="path12" />
    </g>
  </g>
</svg>
